<?xml version="1.0" standalone="no"?><svg xmlns="http://www.w3.org/2000/svg" viewBox="0 0 1440 320"><path fill="#70dbb8" fill-opacity="1" d="M0,192L13.3,176C26.7,160,53,128,80,122.7C106.7,117,133,139,160,144C186.7,149,213,139,240,160C266.7,181,293,235,320,234.7C346.7,235,373,181,400,170.7C426.7,160,453,192,480,213.3C506.7,235,533,245,560,245.3C586.7,245,613,235,640,213.3C666.7,192,693,160,720,149.3C746.7,139,773,149,800,128C826.7,107,853,53,880,74.7C906.7,96,933,192,960,197.3C986.7,203,1013,117,1040,117.3C1066.7,117,1093,203,1120,202.7C1146.7,203,1173,117,1200,74.7C1226.7,32,1253,32,1280,37.3C1306.7,43,1333,53,1360,90.7C1386.7,128,1413,192,1427,224L1440,256L1440,320L1426.7,320C1413.3,320,1387,320,1360,320C1333.3,320,1307,320,1280,320C1253.3,320,1227,320,1200,320C1173.3,320,1147,320,1120,320C1093.3,320,1067,320,1040,320C1013.3,320,987,320,960,320C933.3,320,907,320,880,320C853.3,320,827,320,800,320C773.3,320,747,320,720,320C693.3,320,667,320,640,320C613.3,320,587,320,560,320C533.3,320,507,320,480,320C453.3,320,427,320,400,320C373.3,320,347,320,320,320C293.3,320,267,320,240,320C213.3,320,187,320,160,320C133.3,320,107,320,80,320C53.3,320,27,320,13,320L0,320Z"></path></svg>