<?xml version="1.0" standalone="no"?><svg xmlns="http://www.w3.org/2000/svg" viewBox="0 0 1440 320"><path fill="#70dbb8" fill-opacity="1" d="M0,128L14.1,144C28.2,160,56,192,85,224C112.9,256,141,288,169,293.3C197.6,299,226,277,254,234.7C282.4,192,311,128,339,117.3C367.1,107,395,149,424,186.7C451.8,224,480,256,508,256C536.5,256,565,224,593,224C621.2,224,649,256,678,272C705.9,288,734,288,762,256C790.6,224,819,160,847,122.7C875.3,85,904,75,932,106.7C960,139,988,213,1016,234.7C1044.7,256,1073,224,1101,213.3C1129.4,203,1158,213,1186,213.3C1214.1,213,1242,203,1271,170.7C1298.8,139,1327,85,1355,106.7C1383.5,128,1412,224,1426,272L1440,320L1440,0L1425.9,0C1411.8,0,1384,0,1355,0C1327.1,0,1299,0,1271,0C1242.4,0,1214,0,1186,0C1157.6,0,1129,0,1101,0C1072.9,0,1045,0,1016,0C988.2,0,960,0,932,0C903.5,0,875,0,847,0C818.8,0,791,0,762,0C734.1,0,706,0,678,0C649.4,0,621,0,593,0C564.7,0,536,0,508,0C480,0,452,0,424,0C395.3,0,367,0,339,0C310.6,0,282,0,254,0C225.9,0,198,0,169,0C141.2,0,113,0,85,0C56.5,0,28,0,14,0L0,0Z"></path></svg>